<svg xmlns="http://www.w3.org/2000/svg" version="1.1" xmlns:xlink="http://www.w3.org/1999/xlink" xmlns:svgjs="http://svgjs.dev/svgjs" width="1500" height="1500" viewBox="0 0 1500 1500"><rect width="1500" height="1500" fill="#ffffff"></rect><g transform="matrix(0.6666666666666666,0,0,0.6666666666666666,249.39393939393938,455.9075620701833)"><svg viewBox="0 0 396 233" data-background-color="#ffffff" preserveAspectRatio="xMidYMid meet" height="882" width="1500" xmlns="http://www.w3.org/2000/svg" xmlns:xlink="http://www.w3.org/1999/xlink"><g id="tight-bounds" transform="matrix(1,0,0,1,0.2400000000000091,0.03662931572668526)"><svg viewBox="0 0 395.52 232.92674136854663" height="232.92674136854663" width="395.52"><g><svg viewBox="0 0 395.52 232.92674136854663" height="232.92674136854663" width="395.52"><g transform="matrix(1,0,0,1,0,169.50595419779697)"><svg viewBox="0 0 395.52 63.42078717074965" height="63.42078717074965" width="395.52"><g id="textblocktransform"><svg viewBox="0 0 395.52 63.42078717074965" height="63.42078717074965" width="395.52" id="textblock"><g><svg viewBox="0 0 395.52 34.20614212726428" height="34.20614212726428" width="395.52"><g transform="matrix(1,0,0,1,0,0)"><svg width="395.52" viewBox="1.6 -36.15 538.1899999999999 46.55" height="34.20614212726428" data-palette-color="#e83d95"><path d="M13.8-12L13.8-12 11.55-12 11.55-6.1Q15.2-5.3 16.1-4.15L16.1-4.15 15.6 0 2.1 0 1.6-4.15Q2.25-5 4.35-5.8L4.35-5.8 4.35-28.65Q2.3-29.4 1.6-30.35L1.6-30.35 2.1-34.5 15.35-34.5Q22.3-34.4 25.73-31.98 29.15-29.55 29.15-23.35L29.15-23.35Q29.15-12 13.8-12ZM14.55-29.05L14.55-29.05 11.55-29.05 11.55-17.45 14.9-17.45Q18.3-17.45 19.98-18.8 21.65-20.15 21.65-23.48 21.65-26.8 19.83-27.93 18-29.05 14.55-29.05ZM32.6-21.3L32.6-21.3Q32.6-22.05 32.65-22.9L32.65-22.9Q37.3-25.4 42.65-25.4 48-25.4 50.32-23.38 52.65-21.35 52.65-16.65L52.65-16.65 52.65-6Q54.4-5.65 55.4-5.15L55.4-5.15 55.4-0.8Q52.85 0.4 48.1 0.4L48.1 0.4Q47.6-0.9 47.25-2.75L47.25-2.75Q45.1 0.4 39.45 0.4L39.45 0.4Q36.1 0.4 33.72-1.55 31.35-3.5 31.35-6.85 31.35-10.2 33.57-12.13 35.8-14.05 40.2-14.05L40.2-14.05 45.65-14.05 45.65-16.45Q45.65-20.35 41.5-20.35L41.5-20.35Q39.95-20.35 38.95-20.05L38.95-20.05Q38.85-17.95 38.35-16.8L38.35-16.8 33.45-16.8Q32.6-18.55 32.6-21.3ZM41.6-4.7L41.6-4.7Q44.15-4.7 45.65-6.2L45.65-6.2 45.65-10.3 42.15-10.3Q38.55-10.3 38.55-7.55L38.55-7.55Q38.55-6.3 39.32-5.5 40.1-4.7 41.6-4.7ZM57.2-21.15L57.7-25Q60.45-25.6 62.65-25.6 64.84-25.6 66.3-25.5L66.3-25.5 66.3-23Q67.55-24.05 69.62-24.73 71.7-25.4 73.59-25.4L73.59-25.4Q78.5-25.4 80.47-23.1 82.45-20.8 82.45-15.15L82.45-15.15 82.45-5.55Q84.4-4.8 85.2-3.85L85.2-3.85 84.7 0 73.2 0 72.7-3.85Q73.4-4.8 75.45-5.55L75.45-5.55 75.45-15.45Q75.45-18.15 74.57-19.07 73.7-20 71.45-20 69.2-20 66.95-18.4L66.95-18.4 66.95-5.55Q68.9-4.8 69.7-3.85L69.7-3.85 69.2 0 57.7 0 57.2-3.85Q57.9-4.8 59.95-5.55L59.95-5.55 59.95-19.45Q58.2-20.05 57.2-21.15L57.2-21.15ZM91.59-17.4L87.74-17.9Q87.19-20.4 87.19-22.23 87.19-24.05 87.24-25L87.24-25 107.49-25 107.99-20.8 98.24-8.35Q96.89-6.55 95.29-5.25L95.29-5.25 95.54-4.7Q96.99-5.15 99.59-5.15L99.59-5.15 102.34-5.15Q103.09-6.95 103.99-7.8L103.99-7.8 107.84-7.3Q108.39-4.8 108.39-2.9 108.39-1 108.34 0L108.34 0 87.19 0 86.69-4.1 96.49-16.7Q97.84-18.5 99.44-19.8L99.44-19.8 99.19-20.35Q97.74-19.9 95.14-19.9L95.14-19.9 93.19-19.9Q92.44-18.2 91.59-17.4L91.59-17.4ZM122.89 0.4L122.89 0.4Q116.89 0.4 113.87-2.8 110.84-6 110.84-12.1L110.84-12.1Q110.84-15.8 111.89-18.48 112.94-21.15 114.74-22.6L114.74-22.6Q118.24-25.4 122.89-25.4 127.54-25.4 130.02-23.03 132.49-20.65 132.49-14.5L132.49-14.5Q132.49-10.9 128.94-10.9L128.94-10.9 118.09-10.9Q118.29-7.75 119.72-6.45 121.14-5.15 124.24-5.15L124.24-5.15Q125.94-5.15 127.49-5.55 129.04-5.95 129.74-6.35L129.74-6.35 130.44-6.75 131.94-2.75Q131.64-2.4 131.07-1.88 130.49-1.35 128.17-0.48 125.84 0.4 122.89 0.4ZM118.14-15.05L126.04-15.35Q126.14-16.05 126.14-17.05 126.14-18.05 125.34-19.18 124.54-20.3 122.57-20.3 120.59-20.3 119.54-19.1 118.49-17.9 118.14-15.05L118.14-15.05ZM140.49-31.3L144.14-31.3 144.14-25 151.29-25 151.29-20.8 144.14-20.8 144.14-8.15Q144.14-6.55 144.59-5.83 145.04-5.1 146.74-5.1 148.44-5.1 150.39-5.85L150.39-5.85 151.89-1.95Q148.04 0 144.01 0 139.99 0 138.56-1.73 137.14-3.45 137.14-6.75L137.14-6.75 137.14-20.8 134.89-20.8 134.34-23.85Q135.14-24.8 137.64-25.75L137.64-25.75Q138.24-29.85 140.49-31.3L140.49-31.3ZM159.09-31.3L162.74-31.3 162.74-25 169.89-25 169.89-20.8 162.74-20.8 162.74-8.15Q162.74-6.55 163.19-5.83 163.64-5.1 165.34-5.1 167.03-5.1 168.99-5.85L168.99-5.85 170.49-1.95Q166.64 0 162.61 0 158.59 0 157.16-1.73 155.74-3.45 155.74-6.75L155.74-6.75 155.74-20.8 153.49-20.8 152.94-23.85Q153.74-24.8 156.24-25.75L156.24-25.75Q156.84-29.85 159.09-31.3L159.09-31.3ZM173.23-21.3L173.23-21.3Q173.23-22.05 173.28-22.9L173.28-22.9Q177.93-25.4 183.28-25.4 188.63-25.4 190.96-23.38 193.28-21.35 193.28-16.65L193.28-16.65 193.28-6Q195.03-5.65 196.03-5.15L196.03-5.15 196.03-0.8Q193.48 0.4 188.73 0.4L188.73 0.4Q188.23-0.9 187.88-2.75L187.88-2.75Q185.73 0.4 180.08 0.4L180.08 0.4Q176.73 0.4 174.36-1.55 171.98-3.5 171.98-6.85 171.98-10.2 174.21-12.13 176.43-14.05 180.83-14.05L180.83-14.05 186.28-14.05 186.28-16.45Q186.28-20.35 182.13-20.35L182.13-20.35Q180.58-20.35 179.58-20.05L179.58-20.05Q179.48-17.95 178.98-16.8L178.98-16.8 174.08-16.8Q173.23-18.55 173.23-21.3ZM182.23-4.7L182.23-4.7Q184.78-4.7 186.28-6.2L186.28-6.2 186.28-10.3 182.78-10.3Q179.18-10.3 179.18-7.55L179.18-7.55Q179.18-6.3 179.96-5.5 180.73-4.7 182.23-4.7ZM232.78-8.7L232.78 0 209.88 0 209.38-4.15Q210.03-5 212.13-5.8L212.13-5.8 212.13-28.65Q210.08-29.4 209.38-30.35L209.38-30.35 209.88-34.5 221.58-34.5 222.08-30.35Q221.28-29.4 219.33-28.65L219.33-28.65 219.33-5.45 227.23-5.45Q227.88-8.05 229.08-9.15L229.08-9.15 232.78-8.7ZM252.63-2.1L252.63-2.1Q249.18 0.4 244.5 0.4 239.82 0.4 237.97-1.55 236.13-3.5 236.13-7.9L236.13-7.9 236.13-19.45Q234.38-20.05 233.38-21.15L233.38-21.15 233.88-25Q236.68-25.65 239.07-25.65 241.47-25.65 243.13-25.5L243.13-25.5 243.13-9.55Q243.13-6.85 243.95-5.98 244.78-5.1 247.22-5.1 249.68-5.1 251.78-6.7L251.78-6.7 251.78-19.45Q250.03-20.05 249.03-21.15L249.03-21.15 249.53-25Q252.32-25.65 254.72-25.65 257.13-25.65 258.77-25.5L258.77-25.5 258.77-6Q260.52-5.65 261.52-5.15L261.52-5.15 261.52-1.2Q258.52 0.4 253.97 0.4L253.97 0.4Q252.72-0.5 252.63-2.1ZM276.27-15.2L276.97-15.2Q277.32-16.55 278.42-18.3L278.42-18.3 279.32-19.7Q277.87-20.35 277.27-21.15L277.27-21.15 277.77-25 288.77-25 289.27-21.15Q288.27-19.8 285.22-19L285.22-19 280.82-12.85 285.52-5.9Q288.27-5.15 289.32-3.85L289.32-3.85 288.82 0 277.32 0 276.82-3.85Q277.32-4.5 278.67-5.15L278.67-5.15 277.42-7.2Q276.57-8.6 276.12-10.15L276.12-10.15 275.97-10.65 275.27-10.65Q274.82-8.9 273.82-7.3L273.82-7.3 272.62-5.4Q274.32-4.65 274.92-3.85L274.92-3.85 274.42 0 263.42 0 262.92-3.85Q263.87-5.1 266.67-5.9L266.67-5.9 271.42-12.85 267.02-19Q264.02-19.8 262.97-21.15L262.97-21.15 263.47-25 274.97-25 275.47-21.15Q274.77-20.35 273.77-19.9L273.77-19.9 274.82-18.4Q275.82-16.9 276.27-15.2L276.27-15.2ZM309.72-2.1L309.72-2.1Q306.27 0.4 301.59 0.4 296.92 0.4 295.07-1.55 293.22-3.5 293.22-7.9L293.22-7.9 293.22-19.45Q291.47-20.05 290.47-21.15L290.47-21.15 290.97-25Q293.77-25.65 296.17-25.65 298.57-25.65 300.22-25.5L300.22-25.5 300.22-9.55Q300.22-6.85 301.04-5.98 301.87-5.1 304.32-5.1 306.77-5.1 308.87-6.7L308.87-6.7 308.87-19.45Q307.12-20.05 306.12-21.15L306.12-21.15 306.62-25Q309.42-25.65 311.82-25.65 314.22-25.65 315.87-25.5L315.87-25.5 315.87-6Q317.62-5.65 318.62-5.15L318.62-5.15 318.62-1.2Q315.62 0.4 311.07 0.4L311.07 0.4Q309.82-0.5 309.72-2.1ZM335.67-18.85L335.67-18.85Q331.87-18.85 330.42-17.4L330.42-17.4 330.42-5.95Q334.47-5.2 335.97-3.85L335.97-3.85 335.47 0 321.17 0 320.67-3.85Q321.37-4.8 323.42-5.55L323.42-5.55 323.42-19.45Q321.67-20.05 320.67-21.15L320.67-21.15 321.17-25Q323.92-25.6 326.12-25.6 328.32-25.6 329.77-25.5L329.77-25.5 329.77-22.35Q330.92-23.7 332.72-24.58 334.52-25.45 335.99-25.45 337.47-25.45 338.02-25.2L338.02-25.2 337.87-18.7Q336.87-18.85 335.67-18.85ZM346.11 5.8L346.81 5.8Q347.71 5.8 348.74 4.13 349.76 2.45 350.16 0.15L350.16 0.15 341.96-19.25Q339.51-20.05 338.66-21.15L338.66-21.15 339.16-25 350.66-25 351.16-21.15Q350.51-20.35 348.96-19.7L348.96-19.7 351.71-12.15Q352.61-9.8 352.96-7.5L352.96-7.5 353.11-6.8 353.81-6.8Q354.21-9.3 355.21-12.05L355.21-12.05 357.86-19.45Q356.01-20.15 355.26-21.15L355.26-21.15 355.76-25 366.76-25 367.26-21.15Q366.36-20 363.96-19.2L363.96-19.2 355.71 0.3Q353.36 5.85 352.11 7.45L352.11 7.45Q349.91 10.4 345.99 10.4 342.06 10.4 340.01 8.35L340.01 8.35Q339.96 7.85 339.96 7.35L339.96 7.35Q339.96 4.6 341.11 2.15L341.11 2.15 345.26 2.15Q346.01 3.5 346.11 5.8L346.11 5.8ZM378.81-34.45L406.81-34.45 406.81-27.3 403.66-26.9Q403.01-27.4 402.41-29L402.41-29 396.41-29 396.41-5.8Q398.41-5 399.16-4.15L399.16-4.15 398.66 0 386.96 0 386.46-4.15Q387.11-5 389.21-5.8L389.21-5.8 389.21-29 383.21-29Q382.61-27.4 381.96-26.9L381.96-26.9 378.81-27.3 378.81-34.45ZM423.51-18.85L423.51-18.85Q419.71-18.85 418.26-17.4L418.26-17.4 418.26-5.95Q422.31-5.2 423.81-3.85L423.81-3.85 423.31 0 409.01 0 408.51-3.85Q409.21-4.8 411.26-5.55L411.26-5.55 411.26-19.45Q409.51-20.05 408.51-21.15L408.51-21.15 409.01-25Q411.76-25.6 413.96-25.6 416.16-25.6 417.61-25.5L417.61-25.5 417.61-22.35Q418.76-23.7 420.56-24.58 422.36-25.45 423.83-25.45 425.31-25.45 425.86-25.2L425.86-25.2 425.71-18.7Q424.71-18.85 423.51-18.85ZM428.9-21.3L428.9-21.3Q428.9-22.05 428.95-22.9L428.95-22.9Q433.6-25.4 438.95-25.4 444.3-25.4 446.63-23.38 448.95-21.35 448.95-16.65L448.95-16.65 448.95-6Q450.7-5.65 451.7-5.15L451.7-5.15 451.7-0.8Q449.15 0.4 444.4 0.4L444.4 0.4Q443.9-0.9 443.55-2.75L443.55-2.75Q441.4 0.4 435.75 0.4L435.75 0.4Q432.4 0.4 430.03-1.55 427.65-3.5 427.65-6.85 427.65-10.2 429.88-12.13 432.1-14.05 436.5-14.05L436.5-14.05 441.95-14.05 441.95-16.45Q441.95-20.35 437.8-20.35L437.8-20.35Q436.25-20.35 435.25-20.05L435.25-20.05Q435.15-17.95 434.65-16.8L434.65-16.8 429.75-16.8Q428.9-18.55 428.9-21.3ZM437.9-4.7L437.9-4.7Q440.45-4.7 441.95-6.2L441.95-6.2 441.95-10.3 438.45-10.3Q434.85-10.3 434.85-7.55L434.85-7.55Q434.85-6.3 435.63-5.5 436.4-4.7 437.9-4.7ZM476.55-19.2L468.3 0.3 462.8 0.3 454.6-19.2Q452.1-20 451.25-21.15L451.25-21.15 451.75-25 463.25-25 463.75-21.15Q463.1-20.35 461.6-19.7L461.6-19.7 464.3-12.15Q465.2-9.8 465.6-7.5L465.6-7.5 465.7-6.8 466.4-6.8Q466.8-9.3 467.8-12.05L467.8-12.05 470.45-19.45Q468.6-20.15 467.85-21.15L467.85-21.15 468.35-25 479.35-25 479.85-21.15Q478.95-20 476.55-19.2L476.55-19.2ZM493.5 0.4L493.5 0.4Q487.5 0.4 484.47-2.8 481.45-6 481.45-12.1L481.45-12.1Q481.45-15.8 482.5-18.48 483.55-21.15 485.35-22.6L485.35-22.6Q488.85-25.4 493.5-25.4 498.15-25.4 500.62-23.03 503.1-20.65 503.1-14.5L503.1-14.5Q503.1-10.9 499.55-10.9L499.55-10.9 488.7-10.9Q488.9-7.75 490.32-6.45 491.75-5.15 494.85-5.15L494.85-5.15Q496.55-5.15 498.1-5.55 499.65-5.95 500.35-6.35L500.35-6.35 501.05-6.75 502.55-2.75Q502.25-2.4 501.67-1.88 501.1-1.35 498.77-0.48 496.45 0.4 493.5 0.4ZM488.75-15.05L496.65-15.35Q496.75-16.05 496.75-17.05 496.75-18.05 495.95-19.18 495.15-20.3 493.17-20.3 491.2-20.3 490.15-19.1 489.1-17.9 488.75-15.05L488.75-15.05ZM505.05-31.65L505.55-35.5Q508.35-36.15 510.75-36.15 513.15-36.15 514.8-36L514.8-36 514.8-5.55Q516.75-4.8 517.55-3.85L517.55-3.85 517.05 0 505.55 0 505.05-3.85Q505.75-4.8 507.8-5.55L507.8-5.55 507.8-29.95Q506.05-30.55 505.05-31.65L505.05-31.65ZM529.59-20.9L529.59-20.9Q526.29-20.9 526.29-18.95L526.29-18.95Q526.29-17.1 529.74-16.2L529.74-16.2 533.69-15.15Q539.79-13.55 539.79-8.1L539.79-8.1Q539.79-4.35 537.17-1.98 534.54 0.4 528.82 0.4 523.09 0.4 519.89-1.2L519.89-1.2Q519.84-1.75 519.84-2.3L519.84-2.3Q519.84-5.05 520.94-7.25L520.94-7.25 525.09-7.25Q525.74-6.05 525.94-4.75L525.94-4.75Q526.94-4.45 528.79-4.45L528.79-4.45Q533.19-4.45 533.19-6.95L533.19-6.95Q533.19-7.75 532.59-8.28 531.99-8.8 530.24-9.3L530.24-9.3 526.29-10.45Q523.24-11.3 521.54-12.98 519.84-14.65 519.84-17.93 519.84-21.2 522.49-23.3 525.14-25.4 530.07-25.4 534.99-25.4 538.39-23.95L538.39-23.95Q538.44-23.45 538.44-22.95L538.44-22.95Q538.44-20.35 537.34-18.15L537.34-18.15 533.24-18.15Q532.59-19.3 532.39-20.55L532.39-20.55Q530.99-20.9 529.59-20.9Z" opacity="1" transform="matrix(1,0,0,1,0,0)" fill="#e83d95" class="wordmark-text-0" data-fill-palette-color="primary" id="text-0"></path></svg></g></svg></g><g transform="matrix(1,0,0,1,91.77517502290465,42.28139133610032)"><svg viewBox="0 0 211.9696499541907 21.139395834649324" height="21.139395834649324" width="211.9696499541907"><g transform="matrix(1,0,0,1,0,0)"><svg width="211.9696499541907" viewBox="0 -35 460.21 45.9" height="21.139395834649324" data-palette-color="#e56d90"><path d="M42.05-34.3L42.05-30.15 36.3-30.15 22.25 0.65 19.7 0.65 5.75-30.15 0-30.15 0-34.3 16.65-34.3 16.65-30.15 11.2-30.15 21.3-6.65 31.2-30.15 25.15-30.15 25.15-34.3 42.05-34.3ZM48.55-28.9Q46.95-28.9 45.85-29.75 44.75-30.6 44.75-31.9L44.75-31.9Q44.75-33.25 45.85-34.13 46.95-35 48.55-35L48.55-35Q50.25-35 51.35-34.13 52.45-33.25 52.45-31.9L52.45-31.9Q52.45-30.6 51.35-29.75 50.25-28.9 48.55-28.9L48.55-28.9ZM51.55-3.95L56.9-3.95 56.9 0 41.35 0 41.35-3.95 46.65-3.95 46.65-19.6 41.35-19.6 41.35-23.55 51.55-23.55 51.55-3.95ZM81.35-6.7L83.45-3.5Q78.65 0.7 72.5 0.7L72.5 0.7Q69.15 0.7 66.15-0.7 63.15-2.1 61.3-4.8 59.45-7.5 59.45-11.2L59.45-11.2Q59.45-15.15 61.35-18.1 63.25-21.05 66.3-22.63 69.35-24.2 72.7-24.2L72.7-24.2Q75.65-24.2 77.97-23.25 80.3-22.3 81.62-20.6 82.95-18.9 82.95-16.7L82.95-16.7Q82.95-13.4 80.12-11.58 77.3-9.75 73.35-9.75L73.35-9.75Q70.8-9.75 68.6-10.28 66.4-10.8 64.15-11.8L64.15-11.8 64.15-11.35Q64.15-9 65.27-7.2 66.4-5.4 68.3-4.45 70.2-3.5 72.45-3.5L72.45-3.5Q77.55-3.5 81.35-6.7L81.35-6.7ZM73.05-20.3Q70.35-20.3 68.02-18.75 65.7-17.2 64.7-14.55L64.7-14.55Q68.5-13.2 72.3-13.2L72.3-13.2Q74.8-13.2 76.42-14.13 78.05-15.05 78.05-16.7L78.05-16.7Q78.05-18.3 76.65-19.3 75.25-20.3 73.05-20.3L73.05-20.3ZM116.34-3.95L121.04-3.95 121.04 0 107.14 0 107.14-3.95 111.49-3.95 111.49-13.7Q111.49-16.45 110.12-18.03 108.74-19.6 106.19-19.6L106.19-19.6Q101.84-19.6 96.99-14.1L96.99-14.1 96.99-3.95 101.34-3.95 101.34 0 86.79 0 86.79-3.95 92.09-3.95 92.09-19.6 86.79-19.6 86.79-23.55 96.99-23.55 96.99-18Q99.79-21.1 102.37-22.63 104.94-24.15 107.89-24.15L107.89-24.15Q111.94-24.15 114.14-21.55 116.34-18.95 116.34-13.85L116.34-13.85 116.34-3.95ZM130.39-28.9Q128.79-28.9 127.69-29.75 126.59-30.6 126.59-31.9L126.59-31.9Q126.59-33.25 127.69-34.13 128.79-35 130.39-35L130.39-35Q132.09-35 133.19-34.13 134.29-33.25 134.29-31.9L134.29-31.9Q134.29-30.6 133.19-29.75 132.09-28.9 130.39-28.9L130.39-28.9ZM133.39-3.95L138.74-3.95 138.74 0 123.19 0 123.19-3.95 128.49-3.95 128.49-19.6 123.19-19.6 123.19-23.55 133.39-23.55 133.39-3.95ZM145.04 9.85L143.64 8.45Q145.94 6.05 147.24 4.13 148.54 2.2 148.84 0.3L148.84 0.3Q147.89 0.6 146.54 0.6L146.54 0.6Q145.09 0.6 144.06-0.28 143.04-1.15 143.04-2.55L143.04-2.55Q143.04-4 144.16-4.98 145.29-5.95 146.99-5.95L146.99-5.95Q149.04-5.95 150.31-4.55 151.59-3.15 151.59-1L151.59-1Q151.59 1.6 149.84 4.38 148.09 7.15 145.04 9.85L145.04 9.85ZM183.78-13.9Q188.38-12.65 190.86-10.78 193.33-8.9 193.33-5.75L193.33-5.75Q193.33-2.85 190.88-1.07 188.43 0.7 184.83 0.7L184.83 0.7Q182.33 0.7 179.91-0.18 177.48-1.05 175.58-2.6L175.58-2.6 175.58 0.05 171.78 0.05 171.78-7.6 173.93-7.8Q175.83-5.65 178.71-4.13 181.58-2.6 184.33-2.6L184.33-2.6Q186.18-2.6 187.23-3.3 188.28-4 188.28-5.3L188.28-5.3Q188.28-6.8 186.63-7.78 184.98-8.75 181.23-9.75L181.23-9.75Q176.73-10.95 174.31-12.78 171.88-14.6 171.88-17.55L171.88-17.55Q171.88-19.4 172.91-20.93 173.93-22.45 175.81-23.33 177.68-24.2 180.13-24.2L180.13-24.2Q182.53-24.2 184.71-23.4 186.88-22.6 188.48-21.15L188.48-21.15 188.48-23.55 192.23-23.55 192.23-15.95 190.03-15.7Q188.63-18.05 186.21-19.48 183.78-20.9 181.38-20.9L181.38-20.9Q179.43-20.9 178.18-20.13 176.93-19.35 176.93-18.1L176.93-18.1Q176.93-16.75 178.58-15.83 180.23-14.9 183.78-13.9L183.78-13.9ZM219.93-7L222.13-3.8Q217.48 0.7 211.28 0.7L211.28 0.7Q207.98 0.7 205.08-0.85 202.18-2.4 200.43-5.23 198.68-8.05 198.68-11.7L198.68-11.7Q198.68-15.15 200.28-18.03 201.88-20.9 204.58-22.55 207.28-24.2 210.43-24.2L210.43-24.2Q215.43-24.2 218.23-20.65L218.23-20.65 218.23-23.55 221.78-23.55 221.78-15.3 219.68-15.15Q217.23-20.15 211.88-20.15L211.88-20.15Q209.58-20.15 207.73-19.07 205.88-18 204.83-16.1 203.78-14.2 203.78-11.75L203.78-11.75Q203.78-9.35 204.91-7.45 206.03-5.55 207.85-4.53 209.68-3.5 211.78-3.5L211.78-3.5Q214.23-3.45 216.1-4.35 217.98-5.25 219.93-7L219.93-7ZM251.98-4.15L252.98-0.6Q251.33 0.4 249.13 0.4L249.13 0.4Q247.28 0.4 246-0.68 244.73-1.75 244.23-3.75L244.23-3.75Q239.23 0.7 234.33 0.7L234.33 0.7Q230.88 0.7 228.48-1.25 226.08-3.2 226.08-6.7L226.08-6.7Q226.08-9.1 227.43-10.88 228.78-12.65 231.05-13.58 233.33-14.5 235.98-14.5L235.98-14.5Q238.23-14.5 240.13-14.08 242.03-13.65 244.03-12.85L244.03-12.85 244.03-15.05Q244.03-17.6 242.33-18.8 240.63-20 237.88-20L237.88-20Q233.98-20 228.48-17.85L228.48-17.85 227.48-21.65Q233.38-24.15 238.48-24.15L238.48-24.15Q243.33-24.15 246-21.78 248.68-19.4 248.68-14.85L248.68-14.85 248.68-6.2Q248.68-3.75 250.43-3.75L250.43-3.75Q251.18-3.75 251.98-4.15L251.98-4.15ZM230.93-6.95Q230.93-5.25 232.28-4.33 233.63-3.4 235.58-3.4L235.58-3.4Q237.28-3.4 239.48-4.3 241.68-5.2 244.03-6.95L244.03-6.95 244.03-9.6Q240.63-10.8 236.83-10.9L236.83-10.9Q234.38-10.9 232.65-9.88 230.93-8.85 230.93-6.95L230.93-6.95ZM273.78-24.2Q276.73-24.2 279.23-22.65 281.73-21.1 283.23-18.32 284.73-15.55 284.73-12L284.73-12Q284.73-8.35 283.1-5.45 281.48-2.55 278.68-0.93 275.88 0.7 272.48 0.7L272.48 0.7Q268.03 0.7 264.28-2.7L264.28-2.7 264.28 6.95 269.73 6.95 269.73 10.9 254.23 10.9 254.23 6.95 259.48 6.95 259.48-19.6 254.23-19.6 254.23-23.55 264.28-23.55 264.28-19Q266.23-21.4 268.73-22.8 271.23-24.2 273.78-24.2L273.78-24.2ZM271.43-3.5Q273.78-3.5 275.65-4.58 277.53-5.65 278.58-7.6 279.63-9.55 279.63-12.05L279.63-12.05Q279.63-15.6 277.6-17.82 275.58-20.05 272.43-20.05L272.43-20.05Q270.28-20.05 268.18-18.75 266.08-17.45 264.28-15.15L264.28-15.15 264.28-6.4Q267.88-3.5 271.43-3.5L271.43-3.5ZM306.82-24.2Q309.77-24.2 312.27-22.65 314.77-21.1 316.27-18.32 317.77-15.55 317.77-12L317.77-12Q317.77-8.35 316.15-5.45 314.52-2.55 311.72-0.93 308.92 0.7 305.52 0.7L305.52 0.7Q301.07 0.7 297.32-2.7L297.32-2.7 297.32 6.95 302.77 6.95 302.77 10.9 287.27 10.9 287.27 6.95 292.52 6.95 292.52-19.6 287.27-19.6 287.27-23.55 297.32-23.55 297.32-19Q299.27-21.4 301.77-22.8 304.27-24.2 306.82-24.2L306.82-24.2ZM304.47-3.5Q306.82-3.5 308.7-4.58 310.57-5.65 311.62-7.6 312.67-9.55 312.67-12.05L312.67-12.05Q312.67-15.6 310.65-17.82 308.62-20.05 305.47-20.05L305.47-20.05Q303.32-20.05 301.22-18.75 299.12-17.45 297.32-15.15L297.32-15.15 297.32-6.4Q300.92-3.5 304.47-3.5L304.47-3.5ZM328.42-28.9Q326.82-28.9 325.72-29.75 324.62-30.6 324.62-31.9L324.62-31.9Q324.62-33.25 325.72-34.13 326.82-35 328.42-35L328.42-35Q330.12-35 331.22-34.13 332.32-33.25 332.32-31.9L332.32-31.9Q332.32-30.6 331.22-29.75 330.12-28.9 328.42-28.9L328.42-28.9ZM331.42-3.95L336.77-3.95 336.77 0 321.22 0 321.22-3.95 326.52-3.95 326.52-19.6 321.22-19.6 321.22-23.55 331.42-23.55 331.42-3.95ZM365.52-4.15L366.52-0.6Q364.87 0.4 362.67 0.4L362.67 0.4Q360.82 0.4 359.54-0.68 358.27-1.75 357.77-3.75L357.77-3.75Q352.77 0.7 347.87 0.7L347.87 0.7Q344.42 0.7 342.02-1.25 339.62-3.2 339.62-6.7L339.62-6.7Q339.62-9.1 340.97-10.88 342.32-12.65 344.59-13.58 346.87-14.5 349.52-14.5L349.52-14.5Q351.77-14.5 353.67-14.08 355.57-13.65 357.57-12.85L357.57-12.85 357.57-15.05Q357.57-17.6 355.87-18.8 354.17-20 351.42-20L351.42-20Q347.52-20 342.02-17.85L342.02-17.85 341.02-21.65Q346.92-24.15 352.02-24.15L352.02-24.15Q356.87-24.15 359.54-21.78 362.22-19.4 362.22-14.85L362.22-14.85 362.22-6.2Q362.22-3.75 363.97-3.75L363.97-3.75Q364.72-3.75 365.52-4.15L365.52-4.15ZM344.47-6.95Q344.47-5.25 345.82-4.33 347.17-3.4 349.12-3.4L349.12-3.4Q350.82-3.4 353.02-4.3 355.22-5.2 357.57-6.95L357.57-6.95 357.57-9.6Q354.17-10.8 350.37-10.9L350.37-10.9Q347.92-10.9 346.19-9.88 344.47-8.85 344.47-6.95L344.47-6.95ZM414.81-3.95L419.46-3.95 419.46 0 405.66 0 405.66-3.95 409.91-3.95 409.91-14Q409.91-16.6 408.76-18.1 407.62-19.6 405.31-19.6L405.31-19.6Q403.26-19.6 401.11-18.25 398.96-16.9 396.91-14.4L396.91-14.4 396.91-14.15 396.91-3.95 401.21-3.95 401.21 0 387.71 0 387.71-3.95 392.01-3.95 392.01-14Q392.01-16.6 390.81-18.1 389.61-19.6 387.31-19.6L387.31-19.6Q385.26-19.6 383.11-18.23 380.96-16.85 378.86-14.3L378.86-14.3 378.86-3.95 383.21-3.95 383.21 0 368.66 0 368.66-3.95 373.96-3.95 373.96-19.6 368.66-19.6 368.66-23.55 378.86-23.55 378.86-18.4Q381.06-21.15 383.66-22.65 386.26-24.15 389.06-24.15L389.06-24.15Q391.91-24.15 393.84-22.58 395.76-21 396.51-17.95L396.51-17.95Q398.76-20.9 401.44-22.53 404.11-24.15 407.01-24.15L407.01-24.15Q410.66-24.15 412.74-21.58 414.81-19 414.81-14.15L414.81-14.15 414.81-3.95ZM434.96 0.7Q431.51 0.7 428.51-0.85 425.51-2.4 423.74-5.25 421.96-8.1 421.96-11.75L421.96-11.75Q421.96-15.45 423.74-18.28 425.51-21.1 428.51-22.65 431.51-24.2 434.96-24.2L434.96-24.2Q438.36-24.2 441.34-22.65 444.31-21.1 446.11-18.25 447.91-15.4 447.91-11.75L447.91-11.75Q447.91-8.1 446.16-5.25 444.41-2.4 441.44-0.85 438.46 0.7 434.96 0.7L434.96 0.7ZM434.96-3.25Q437.21-3.25 439.01-4.3 440.81-5.35 441.84-7.28 442.86-9.2 442.86-11.75L442.86-11.75Q442.86-14.3 441.84-16.23 440.81-18.15 439.01-19.2 437.21-20.25 434.96-20.25L434.96-20.25Q431.51-20.25 429.29-17.93 427.06-15.6 427.06-11.75L427.06-11.75Q427.06-7.9 429.29-5.58 431.51-3.25 434.96-3.25L434.96-3.25ZM456.01 0.65Q454.31 0.65 453.11-0.28 451.91-1.2 451.91-2.6L451.91-2.6Q451.91-4.1 453.11-5.05 454.31-6 456.01-6L456.01-6Q457.86-6 459.03-5.05 460.21-4.1 460.21-2.6L460.21-2.6Q460.21-1.2 459.03-0.28 457.86 0.65 456.01 0.65L456.01 0.65Z" opacity="1" transform="matrix(1,0,0,1,0,0)" fill="#e56d90" class="slogan-text-1" data-fill-palette-color="secondary" id="text-1"></path></svg></g></svg></g></svg></g></svg></g><g transform="matrix(1,0,0,1,121.08227210993755,0)"><svg viewBox="0 0 153.35545578012488 153.35545578012488" height="153.35545578012488" width="153.35545578012488"><g><svg></svg></g><g id="icon-0"><svg viewBox="0 0 153.35545578012488 153.35545578012488" height="153.35545578012488" width="153.35545578012488"><g><path d="M0 76.678c0-42.348 34.33-76.678 76.678-76.678 42.348 0 76.678 34.33 76.677 76.678 0 42.348-34.33 76.678-76.677 76.677-42.348 0-76.678-34.33-76.678-76.677zM76.678 150.271c40.644 0 73.593-32.949 73.593-73.593 0-40.644-32.949-73.593-73.593-73.593-40.644 0-73.593 32.949-73.593 73.593 0 40.644 32.949 73.593 73.593 73.593z" data-fill-palette-color="accent" fill="#e56d90" stroke="transparent"></path><ellipse rx="75.91095061116182" ry="75.91095061116182" cx="76.67772789006244" cy="76.67772789006244" fill="#e56d90" stroke="transparent" stroke-width="0" fill-opacity="1" data-fill-palette-color="accent"></ellipse></g><g transform="matrix(1,0,0,1,33.28158439013454,33.28158439013454)"><svg viewBox="0 0 86.7922869998558 86.7922869998558" height="86.7922869998558" width="86.7922869998558"><g><svg xmlns="http://www.w3.org/2000/svg" viewBox="4 4 56 56" x="0" y="0" height="86.7922869998558" width="86.7922869998558" class="icon-cg-0" data-fill-palette-color="quaternary" id="cg-0"><g fill="#ffffff" data-fill-palette-color="quaternary"><polygon points="43.586 17 42.586 16 40.414 16 39.414 17 41.414 19 41.5 19 41.586 19 43.586 17" fill="#ffffff" data-fill-palette-color="quaternary"></polygon><path d="M59 45H23v8a7.008 7.008 0 0 0 7 7H53a7.008 7.008 0 0 0 7-7V45Z" fill="#ffffff" data-fill-palette-color="quaternary"></path><path d="M4 11V36a7.008 7.008 0 0 0 7 7H21V4H11A7.008 7.008 0 0 0 4 11Z" fill="#ffffff" data-fill-palette-color="quaternary"></path><path d="M50.357 35.116a10.5 10.5 0 1 0-17.714 0A9.059 9.059 0 0 0 25.057 43H57.943A9.059 9.059 0 0 0 50.357 35.116ZM41.5 21a8.49 8.49 0 0 1 6.469 14H35.031A8.49 8.49 0 0 1 41.5 21Z" fill="#ffffff" data-fill-palette-color="quaternary"></path></g></svg></g></svg></g></svg></g></svg></g><g></g></svg></g><defs></defs></svg><rect width="395.52" height="232.92674136854663" fill="none" stroke="none" visibility="hidden"></rect></g></svg></g></svg>