
        <svg xmlns="http://www.w3.org/2000/svg" xmlns:xlink="http://www.w3.org/1999/xlink" version="1.1" width="2812.1161865270346" 
        height="3166.233766233766" viewBox="0 0 2812.1161865270346 3166.233766233766">
			
			<g transform="scale(8.311688311688311) translate(10, 10)">
				<defs id="SvgjsDefs1695"></defs><g id="SvgjsG1696" featureKey="rootContainer" transform="matrix(6.417996785358077,0,0,6.417996785358077,0.0000472239293810277,0.02678580245300326)" fill="#111111"><path xmlns="http://www.w3.org/2000/svg" d="M23.11 55.78L1.69 43.41A3.39 3.39 0 0 1 0 40.48V15.75a3.39 3.39 0 0 1 1.69-2.94L23.11.45a3.39 3.39 0 0 1 3.39 0l21.41 12.37a3.39 3.39 0 0 1 1.69 2.94v24.72a3.39 3.39 0 0 1-1.69 2.94L26.5 55.78a3.39 3.39 0 0 1-3.39 0z"></path></g><g id="SvgjsG1697" featureKey="symbolFeature-0" transform="matrix(1.3105301041879032,0,0,1.3105301041879032,109.00000006788022,65)" fill="#ff9de2"><path xmlns="http://www.w3.org/2000/svg" d="M24.607,83.056v9.629h8.558v7.313L43.14,100v-7.315h7.889v-9.629l-7.89,0.001l-0.002-7.09  c18.689-2.451,33.166-18.469,33.168-37.815C76.305,17.114,59.189,0,38.152,0C17.114,0,0,17.114,0,38.152  c-0.001,19.346,14.478,35.365,33.165,37.817v7.087H24.607z M9.974,38.152C9.972,22.613,22.614,9.974,38.152,9.973  c15.537,0,28.178,12.641,28.18,28.179C66.33,53.69,53.69,66.331,38.152,66.331C22.614,66.331,9.972,53.69,9.974,38.152z"></path></g><g id="SvgjsG1698" featureKey="nameFeature-0" transform="matrix(1.4180775459226376,0,0,1.4180775459226376,55.596613754547256,201.95182039559725)" fill="#ff9de2"><path d="M20.4 21.08 c2.32 0 2.52 4.08 -1.64 4.08 l-0.68 0 c0.2 0.68 0.32 1.44 0.32 2.2 c0 3.28 -2.16 6.84 -7.92 6.84 c-2.4 0 -4.2 1.28 -4.2 2.36 c0 0.64 0.6 1.16 1.96 1.16 l7.96 0 c2.72 0 4.64 0.8 4.64 3.36 c0 4.28 -5.4 8.08 -11.68 8.08 c-5.48 0 -6.64 -3 -6.64 -4.88 c0 -0.64 1.84 -2.08 3.24 -3.32 c-1.56 -0.84 -3.36 -2.84 -3.36 -3.6 s0.32 -1.12 1.16 -1.68 l3.24 -2.12 c-2.8 -1.12 -4.08 -3.52 -4.08 -6.04 c0 -3.28 2.16 -6.84 7.92 -6.84 c2.2 0 3.88 0.52 5.12 1.36 c3 1.72 2.24 -0.96 4.64 -0.96 z M11.32 32.2 c2.12 0 3.08 -1.6 3.08 -3.8 c0 -2.96 -1.84 -5.72 -4.52 -5.72 c-2.08 0 -3.12 1.6 -3.12 3.88 c0 2.92 1.8 5.64 4.56 5.64 z M14.32 41.36 l-7.36 0 l-0.12 0 c-0.2 0.92 -0.48 1.88 -0.48 2.56 c0 1.56 1.56 3.12 4.84 3.12 c6.36 0 7.04 -5.68 3.12 -5.68 z M33.126000000000005 40.64 c-5.56 0 -9.72 -4 -9.72 -9.8 c0 -5.64 4 -10.16 9.88 -10.16 c5.56 0 9.72 4 9.72 9.8 c0 5.64 -3.96 10.16 -9.88 10.16 z M34.286 38.24 c1.96 0 4.36 -1.2 4.36 -5.8 c0 -5.24 -2.84 -9.36 -6.56 -9.36 c-1.92 0 -4.32 1.2 -4.32 5.76 c0 5.28 2.84 9.4 6.52 9.4 z M51.452 40.64 c-1.64 0 -3.84 -1.52 -3.84 -2.68 l0 -11.56 c0 -2.32 -0.68 -3 -3.48 -3 c-0.44 0 -0.44 -1.24 -0.12 -1.36 c3.04 -1.2 4.52 -2.28 6.68 -4.76 c0.52 -0.6 1.6 0 1.44 0.68 c-0.16 0.72 -0.24 1.32 -0.24 1.8 c0 1.44 0.64 1.88 1.6 1.88 c1.48 0 3.32 -0.4 4.76 -0.52 c0.4 -0.04 0.56 0.32 0.56 0.84 c0 1.04 -0.64 2.52 -1.28 2.48 l-1.56 -0.12 c-2.72 -0.2 -4.12 -0.16 -4.12 1.68 l0 9.44 c0 1.52 0.76 2.08 2.16 2.08 c1.24 0 3.44 -0.24 4.52 -0.36 c0.32 -0.04 0.68 1.16 0.28 1.32 c-2.2 0.88 -4.08 1.44 -7.36 2.16 z M59.978 40 c-0.32 0 -0.6 -1.16 -0.28 -1.2 c1.2 -0.16 2.76 -0.72 2.76 -3.04 l0 -9.6 c0 -1.92 -1.04 -2.36 -2.72 -2.56 c-0.32 -0.04 -0.16 -1.08 0.16 -1.16 l6.32 -1.76 c0.48 -0.12 0.68 0.2 0.68 0.6 c0 1.12 0.32 1.52 0.96 1.28 c1.96 -0.72 3.84 -1.88 6.24 -1.88 c3.92 0 5.28 3 5.28 5.6 l0 9.48 c0 2.32 1.56 2.88 2.76 3.04 c0.32 0.04 0.04 1.2 -0.24 1.2 l-8.92 0 c-0.28 0 -0.48 -1.16 -0.24 -1.2 c1.52 -0.24 2.36 -0.92 2.36 -3.04 l0 -7.68 c0 -3.36 -1.64 -4.12 -4.2 -4.12 c-1.72 0 -4.16 0.48 -4.16 1.52 l0 10.28 c0 2.12 1.08 2.84 2.56 3.04 c0.28 0.04 0.04 1.2 -0.28 1.2 l-9.04 0 z M99.824 36.92 c0.36 -0.08 0.68 1 0.44 1.12 c-1.56 0.76 -4.8 2.6 -5.56 2.6 c-4.92 0 -11.24 -2.32 -11.24 -9.4 c0 -4.76 2.92 -10.56 10.08 -10.56 c6.04 0 6.8 4.32 6.8 6 c0 1.04 -0.32 2.6 -0.72 3.52 l-11.88 0.32 c0.76 4.96 4.8 7.04 7.96 7.04 c0.36 0 2.08 -0.2 4.12 -0.64 z M92.144 23.24 c-3.16 0 -4.4 2.16 -4.52 5.2 l8.68 -0.28 c0.4 -2.16 -0.64 -4.92 -4.16 -4.92 z M118.67 36.92 c0.36 -0.08 0.68 1 0.44 1.12 c-1.56 0.76 -4.8 2.6 -5.56 2.6 c-4.92 0 -11.24 -2.32 -11.24 -9.4 c0 -4.76 2.92 -10.56 10.08 -10.56 c6.04 0 6.8 4.32 6.8 6 c0 1.04 -0.32 2.6 -0.72 3.52 l-11.88 0.32 c0.76 4.96 4.8 7.04 7.96 7.04 c0.36 0 2.08 -0.2 4.12 -0.64 z M110.99000000000001 23.24 c-3.16 0 -4.4 2.16 -4.52 5.2 l8.68 -0.28 c0.4 -2.16 -0.64 -4.92 -4.16 -4.92 z M143.156 38 c0.2 0.12 0.28 0.4 0.28 0.56 c0 0.84 -3.48 2.08 -5.16 2.08 c-1.28 0 -1.72 -2.52 -2.92 -2 c-1.72 0.76 -4.56 2 -5.92 2 c-4.4 0 -8.28 -3.4 -8.28 -9.24 c0 -5.4 3.36 -10.72 9.8 -10.72 c3.52 0 4.48 1.92 4.48 -0.68 l0 -3.44 c0 -2.88 -0.24 -3.44 -4.2 -3.92 c-0.28 -0.04 -0.2 -1.08 0.08 -1.12 l8.56 -1.6 c0.36 -0.08 0.68 0.2 0.56 0.72 c-0.28 1.28 -0.72 3.68 -0.72 7.32 l0 17.68 c0 3.4 2.88 2 3.44 2.36 z M135.436 35.68 l0 -9.64 c-0.84 -1.48 -2.4 -2.96 -4.96 -2.96 c-3.4 0 -5 2.36 -5 6.4 c0 5.24 2.84 8.64 5.88 8.64 c1.32 0 4.08 -1.48 4.08 -2.44 z"></path></g><g id="SvgjsG1699" featureKey="sloganFeature-0" transform="matrix(0.9219573304934827,0,0,0.9219573304934827,78.53217040677836,277.7036776617093)" fill="#ff9de2"><path d="M16.42 10.7 c0.26 0 0.26 0.56 0.02 0.66 c-0.6 0.2 -1.16 0.74 -1.78 2.2 l-1.9 4.52 c-0.42 0.96 -0.56 1.44 -0.68 1.96 l-0.98 0.2 l-2.54 -6.24 l-1.72 4.08 c-0.38 0.92 -0.56 1.46 -0.68 1.96 l-0.96 0.2 l-2.72 -6.66 c-0.64 -1.56 -1.2 -2.04 -1.78 -2.22 c-0.26 -0.08 -0.26 -0.66 0.02 -0.66 l3.68 0 c0.24 0 0.26 0.54 0 0.66 c-0.4 0.18 -0.48 0.82 0.06 2.22 l1.56 4 l2 -4.84 c-0.4 -0.9 -0.72 -1.32 -1.38 -1.38 c-0.22 -0.02 -0.24 -0.66 0.02 -0.66 l3.62 0 c0.26 0 0.26 0.52 0.02 0.66 c-0.42 0.22 -0.46 0.82 0.08 2.22 l1.56 3.96 l1.64 -3.96 c0.62 -1.5 0.36 -2.12 -0.58 -2.22 c-0.22 -0.02 -0.22 -0.66 0.02 -0.66 l3.4 0 z M22.82 20.32 c-2.76 0 -4.8 -2.04 -4.8 -4.92 c0 -2.76 1.94 -5.06 4.88 -5.06 c2.78 0 4.82 2.04 4.82 4.9 c0 2.8 -1.94 5.08 -4.9 5.08 z M23.380000000000003 19.22 c1.04 0 2.38 -0.64 2.38 -3.04 c0 -2.64 -1.54 -4.76 -3.44 -4.76 c-1.02 0 -2.36 0.66 -2.36 3.06 c0 2.64 1.56 4.74 3.42 4.74 z M45.92 19.46 c0.16 0.02 0.02 0.54 -0.12 0.54 l-4.2 0 c-0.14 0 -0.22 -0.52 -0.12 -0.54 c0.66 -0.12 1.18 -0.42 1.18 -1.52 l0 -4.04 c0 -1.68 -0.9 -2.02 -2 -2.02 c-0.82 0 -2.1 0.28 -2.1 0.78 l0 5.28 c0 1.16 0.66 1.46 1.2 1.52 c0.16 0.02 0.02 0.54 -0.12 0.54 l-4.02 0 c-0.16 0 -0.26 -0.52 -0.14 -0.54 c0.68 -0.12 1.2 -0.42 1.2 -1.52 l0 -4.04 c0 -1.68 -0.86 -2.02 -1.96 -2.02 c-0.84 0 -2.16 0.26 -2.16 0.78 l0 5.28 c0 1.14 0.66 1.44 1.24 1.52 c0.14 0.02 0.02 0.54 -0.14 0.54 l-4.22 0 c-0.16 0 -0.3 -0.52 -0.14 -0.54 c0.6 -0.08 1.4 -0.36 1.4 -1.52 l0 -4.92 c0 -0.96 -0.54 -1.18 -1.38 -1.28 c-0.16 -0.02 -0.08 -0.46 0.08 -0.52 l2.88 -0.86 c0.22 -0.08 0.34 0.06 0.34 0.26 c0 0.6 0.16 0.82 0.5 0.66 c0.84 -0.4 1.72 -0.94 2.82 -0.94 c1.12 0 1.84 0.52 2.24 1.24 c1.08 -0.66 2.58 -1.24 3.76 -1.24 c1.94 0 2.6 1.5 2.6 2.86 l0 4.74 c0 1.16 0.78 1.44 1.38 1.52 z M55.64 18.5 c0.18 -0.04 0.32 0.48 0.18 0.54 c-0.8 0.44 -2.44 1.28 -2.8 1.28 c-2.34 0 -5.52 -1.2 -5.52 -4.72 c0 -2.34 1.4 -5.26 5 -5.26 c3 0 3.38 2.14 3.38 3 c0 0.52 -0.16 1.22 -0.32 1.64 l-6.2 0.18 c0.34 2.62 2.54 3.7 4.06 3.7 c0.18 0 1.04 -0.1 2.22 -0.36 z M51.82 11.52 c-1.68 0 -2.42 1.1 -2.5 2.68 l4.72 -0.16 c0.2 -0.96 -0.18 -2.52 -2.22 -2.52 z M57.7 20 c-0.16 0 -0.3 -0.52 -0.14 -0.54 c0.6 -0.08 1.4 -0.36 1.4 -1.52 l0 -4.92 c0 -0.96 -0.54 -1.18 -1.38 -1.28 c-0.16 -0.02 -0.08 -0.46 0.08 -0.52 l2.9 -0.86 c0.22 -0.08 0.32 0.06 0.32 0.26 c0 0.6 0.16 0.8 0.5 0.66 c0.94 -0.38 1.9 -0.94 3.12 -0.94 c1.92 0 2.66 1.5 2.66 2.86 l0 4.74 c0 1.16 0.78 1.44 1.4 1.52 c0.16 0.02 0.02 0.54 -0.12 0.54 l-4.26 0 c-0.16 0 -0.26 -0.52 -0.14 -0.54 c0.74 -0.12 1.26 -0.42 1.26 -1.52 l0 -4.04 c0 -1.68 -1 -2.02 -2.2 -2.02 c-0.92 0 -2.28 0.26 -2.28 0.78 l0 5.28 c0 1.14 0.66 1.44 1.3 1.52 c0.14 0.02 0.02 0.54 -0.14 0.54 l-4.28 0 z M74.16000000000001 20 c-0.16 0 -0.3 -0.54 -0.14 -0.56 c0.6 -0.08 1.38 -0.38 1.38 -1.34 l0 -5.22 c0 -0.74 -0.36 -1.22 -1.46 -1.38 c-0.14 -0.02 -0.14 -0.8 0 -0.8 l0.88 0 c0.4 0 0.58 -0.08 0.58 -0.48 l0 -0.62 c0 -2.74 2.66 -4.94 5.08 -4.94 c0.34 0 0.96 0.58 0.9 0.88 c-0.18 0.86 -0.4 1.46 -0.68 1.46 c-0.12 0 -0.64 -0.5 -1.72 -0.5 c-0.7 0 -1.72 0.22 -1.72 1.76 l0 1.78 c0 0.5 0.34 0.66 0.84 0.66 l2.08 0 c0.5 0 0.3 1.54 -0.36 1.46 l-0.44 -0.06 c-1.74 -0.24 -2.12 -0.06 -2.12 0.78 l0 4.82 c0 1.36 0.78 1.54 2.12 1.74 c0.14 0.02 0.02 0.56 -0.12 0.56 l-5.1 0 z M87.04000000000002 20.32 c-2.76 0 -4.8 -2.04 -4.8 -4.92 c0 -2.76 1.94 -5.06 4.88 -5.06 c2.78 0 4.82 2.04 4.82 4.9 c0 2.8 -1.94 5.08 -4.9 5.08 z M87.60000000000002 19.22 c1.04 0 2.38 -0.64 2.38 -3.04 c0 -2.64 -1.54 -4.76 -3.44 -4.76 c-1.02 0 -2.36 0.66 -2.36 3.06 c0 2.64 1.56 4.74 3.42 4.74 z M93.66000000000001 20 c-0.16 0 -0.3 -0.52 -0.14 -0.54 c0.6 -0.08 1.4 -0.38 1.4 -1.76 l0 -4.68 c0 -0.96 -0.54 -1.18 -1.38 -1.28 c-0.16 -0.02 -0.08 -0.46 0.08 -0.52 l2.9 -0.86 c0.22 -0.08 0.32 0.06 0.32 0.24 c0 0.62 0.04 1.34 0.56 1.02 c0.76 -0.48 1.86 -1.28 2.52 -1.28 c0.28 0 0.96 0.58 0.9 0.88 c-0.2 0.92 -0.42 1.56 -0.68 1.56 c-0.1 0 -0.66 -0.5 -1.68 -0.5 c-0.76 0 -1.68 0.22 -1.68 1.3 l0 4.12 c0 1.38 0.58 1.5 2.34 1.76 c0.14 0.02 0.12 0.54 -0.28 0.54 l-5.18 0 z M121.84000000000002 10.7 c0.26 0 0.26 0.56 0.02 0.66 c-0.6 0.2 -1.16 0.74 -1.78 2.2 l-1.9 4.52 c-0.42 0.96 -0.56 1.44 -0.68 1.96 l-0.98 0.2 l-2.54 -6.24 l-1.72 4.08 c-0.38 0.92 -0.56 1.46 -0.68 1.96 l-0.96 0.2 l-2.72 -6.66 c-0.64 -1.56 -1.2 -2.04 -1.78 -2.22 c-0.26 -0.08 -0.26 -0.66 0.02 -0.66 l3.68 0 c0.24 0 0.26 0.54 0 0.66 c-0.4 0.18 -0.48 0.82 0.06 2.22 l1.56 4 l2 -4.84 c-0.4 -0.9 -0.72 -1.32 -1.38 -1.38 c-0.22 -0.02 -0.24 -0.66 0.02 -0.66 l3.62 0 c0.26 0 0.26 0.52 0.02 0.66 c-0.42 0.22 -0.46 0.82 0.08 2.22 l1.56 3.96 l1.64 -3.96 c0.62 -1.5 0.36 -2.12 -0.58 -2.22 c-0.22 -0.02 -0.22 -0.66 0.02 -0.66 l3.4 0 z M128.24 20.32 c-2.76 0 -4.8 -2.04 -4.8 -4.92 c0 -2.76 1.94 -5.06 4.88 -5.06 c2.78 0 4.82 2.04 4.82 4.9 c0 2.8 -1.94 5.08 -4.9 5.08 z M128.8 19.22 c1.04 0 2.38 -0.64 2.38 -3.04 c0 -2.64 -1.54 -4.76 -3.44 -4.76 c-1.02 0 -2.36 0.66 -2.36 3.06 c0 2.64 1.56 4.74 3.42 4.74 z M151.34000000000003 19.46 c0.16 0.02 0.02 0.54 -0.12 0.54 l-4.2 0 c-0.14 0 -0.22 -0.52 -0.12 -0.54 c0.66 -0.12 1.18 -0.42 1.18 -1.52 l0 -4.04 c0 -1.68 -0.9 -2.02 -2 -2.02 c-0.82 0 -2.1 0.28 -2.1 0.78 l0 5.28 c0 1.16 0.66 1.46 1.2 1.52 c0.16 0.02 0.02 0.54 -0.12 0.54 l-4.02 0 c-0.16 0 -0.26 -0.52 -0.14 -0.54 c0.68 -0.12 1.2 -0.42 1.2 -1.52 l0 -4.04 c0 -1.68 -0.86 -2.02 -1.96 -2.02 c-0.84 0 -2.16 0.26 -2.16 0.78 l0 5.28 c0 1.14 0.66 1.44 1.24 1.52 c0.14 0.02 0.02 0.54 -0.14 0.54 l-4.22 0 c-0.16 0 -0.3 -0.52 -0.14 -0.54 c0.6 -0.08 1.4 -0.36 1.4 -1.52 l0 -4.92 c0 -0.96 -0.54 -1.18 -1.38 -1.28 c-0.16 -0.02 -0.08 -0.46 0.08 -0.52 l2.88 -0.86 c0.22 -0.08 0.34 0.06 0.34 0.26 c0 0.6 0.16 0.82 0.5 0.66 c0.84 -0.4 1.72 -0.94 2.82 -0.94 c1.12 0 1.84 0.52 2.24 1.24 c1.08 -0.66 2.58 -1.24 3.76 -1.24 c1.94 0 2.6 1.5 2.6 2.86 l0 4.74 c0 1.16 0.78 1.44 1.38 1.52 z M161.06 18.5 c0.18 -0.04 0.32 0.48 0.18 0.54 c-0.8 0.44 -2.44 1.28 -2.8 1.28 c-2.34 0 -5.52 -1.2 -5.52 -4.72 c0 -2.34 1.4 -5.26 5 -5.26 c3 0 3.38 2.14 3.38 3 c0 0.52 -0.16 1.22 -0.32 1.64 l-6.2 0.18 c0.34 2.62 2.54 3.7 4.06 3.7 c0.18 0 1.04 -0.1 2.22 -0.36 z M157.24 11.52 c-1.68 0 -2.42 1.1 -2.5 2.68 l4.72 -0.16 c0.2 -0.96 -0.18 -2.52 -2.22 -2.52 z M163.12 20 c-0.16 0 -0.3 -0.52 -0.14 -0.54 c0.6 -0.08 1.4 -0.36 1.4 -1.52 l0 -4.92 c0 -0.96 -0.54 -1.18 -1.38 -1.28 c-0.16 -0.02 -0.08 -0.46 0.08 -0.52 l2.9 -0.86 c0.22 -0.08 0.32 0.06 0.32 0.26 c0 0.6 0.16 0.8 0.5 0.66 c0.94 -0.38 1.9 -0.94 3.12 -0.94 c1.92 0 2.66 1.5 2.66 2.86 l0 4.74 c0 1.16 0.78 1.44 1.4 1.52 c0.16 0.02 0.02 0.54 -0.12 0.54 l-4.26 0 c-0.16 0 -0.26 -0.52 -0.14 -0.54 c0.74 -0.12 1.26 -0.42 1.26 -1.52 l0 -4.04 c0 -1.68 -1 -2.02 -2.2 -2.02 c-0.92 0 -2.28 0.26 -2.28 0.78 l0 5.28 c0 1.14 0.66 1.44 1.3 1.52 c0.14 0.02 0.02 0.54 -0.14 0.54 l-4.28 0 z"></path></g>
			</g>
		</svg>
	